<?xml version="1.0" standalone="no"?>
<!DOCTYPE svg PUBLIC "-//W3C//DTD SVG 20010904//EN"
 "http://www.w3.org/TR/2001/REC-SVG-20010904/DTD/svg10.dtd">
<svg version="1.0" xmlns="http://www.w3.org/2000/svg"
 width="512.000000pt" height="512.000000pt" viewBox="0 0 512.000000 512.000000"
 preserveAspectRatio="xMidYMid meet">
<metadata>
Created by potrace 1.14, written by Peter Selinger 2001-2017
</metadata>
<g transform="translate(0.000000,512.000000) scale(0.100000,-0.100000)"
fill="#000000" stroke="none">
<path d="M0 2560 l0 -2560 2560 0 2560 0 0 2560 0 2560 -2560 0 -2560 0 0
-2560z m2760 1616 c367 -60 602 -170 781 -364 137 -149 205 -313 229 -560 14
-141 1 -317 -35 -457 -91 -361 -357 -616 -750 -721 -175 -46 -265 -56 -572
-61 l-293 -6 0 -543 0 -544 -390 0 -390 0 0 1641 0 1640 658 -4 c561 -3 672
-6 762 -21z"/>
<path d="M2120 3110 l0 -543 213 6 c235 7 305 19 398 69 163 86 241 242 242
483 0 175 -38 288 -130 377 -107 104 -225 137 -515 145 l-208 6 0 -543z"/>
</g>
</svg>
